<svg width="18" height="18" viewBox="0 0 18 18" fill="none" xmlns="http://www.w3.org/2000/svg">
<path d="M14.25 15.75C14.6478 15.75 15.0293 15.592 15.3106 15.3106C15.592 15.0293 15.75 14.6478 15.75 14.25V3.75C15.75 3.35218 15.592 2.97064 15.3106 2.68934C15.0293 2.40803 14.6478 2.25 14.25 2.25H3.75C3.35218 2.25 2.97064 2.40803 2.68934 2.68934C2.40803 2.97064 2.25 3.35218 2.25 3.75V14.25C2.25 14.6478 2.40803 15.0293 2.68934 15.3106C2.97064 15.592 3.35218 15.75 3.75 15.75H14.25ZM9 5.25V8.25H12.75V9.75H9V12.75L5.25 9L9 5.25Z" fill="#AFE6FC"/>
</svg>
