<svg width="54" height="72" viewBox="0 0 54 72" fill="none" xmlns="http://www.w3.org/2000/svg">
<g id="Vector">
<path fill-rule="evenodd" clip-rule="evenodd" d="M31.1061 43.2596L32.9813 46.3993L35.7408 46.3978L32.7116 41.7166L35.6067 37.2332H32.8544L31.1177 40.1513L29.3867 37.2332H28.439C27.9428 36.473 27.3537 35.5692 26.6719 34.5217C27.3106 34.2515 27.8643 33.8044 28.2716 33.2299C28.6475 32.6812 28.845 32.0239 28.8357 31.3523C28.8719 30.8408 28.7874 30.3278 28.5895 29.8572C28.3915 29.3866 28.086 28.9723 27.699 28.6498C26.6516 27.9752 25.4226 27.6627 24.1909 27.7579H20.3813V38.8327H23.2662V35.1431H24.5818L27.3571 39.7425H28.237L29.4978 41.7166L26.483 46.3993H29.2309L31.1061 43.2596ZM24.0625 33.0782H23.2662V29.839H24.0163C24.6255 29.7969 25.2346 29.9215 25.7819 30.2003C25.9743 30.3306 26.1287 30.5122 26.2288 30.7258C26.3289 30.9394 26.3709 31.177 26.3503 31.4133C26.3689 31.6553 26.3276 31.8982 26.2302 32.1192C26.1328 32.3402 25.9825 32.5321 25.7935 32.6769C25.2679 32.9848 24.6653 33.1245 24.0625 33.0782Z" fill="#007046"/>
<path fill-rule="evenodd" clip-rule="evenodd" d="M11.7264 58.1772H42.7743V21.5529L36.3164 13.8228H11.7264V58.1772ZM14.5089 55.4062V16.4734H33.3362V23.4691H40.0567V55.4062H14.5089Z" fill="#007046"/>
<path d="M16.9645 1.64738C16.9645 2.55714 16.2269 3.29476 15.3171 3.29476H8.72762C6.00237 3.29476 3.78548 5.51164 3.78548 8.2369V14.8264C3.78548 15.7362 3.04786 16.4738 2.1381 16.4738C1.22834 16.4738 0.490723 15.7362 0.490723 14.8264V8.2369C0.490723 3.69534 4.18607 0 8.72762 0H15.3171C16.2269 0 16.9645 0.737621 16.9645 1.64738ZM45.7728 0H39.1833C38.2728 0 37.5359 0.737621 37.5359 1.64738C37.5359 2.55714 38.2728 3.29476 39.1833 3.29476H45.7728C48.4981 3.29476 50.715 5.51164 50.715 8.2369V14.8264C50.715 15.7362 51.4518 16.4738 52.3624 16.4738C53.2729 16.4738 54.0097 15.7362 54.0097 14.8264V8.2369C54.0097 3.69534 50.3144 0 45.7728 0ZM15.3171 68.7052H8.72762C6.00237 68.7052 3.78548 66.4883 3.78548 63.7631V57.1736C3.78548 56.263 3.04786 55.5262 2.1381 55.5262C1.22834 55.5262 0.490723 56.263 0.490723 57.1736V63.7631C0.490723 68.3047 4.18607 72 8.72762 72H15.3171C16.2269 72 16.9645 71.2632 16.9645 70.3526C16.9645 69.4421 16.2269 68.7052 15.3171 68.7052ZM52.3624 55.5262C51.4518 55.5262 50.715 56.263 50.715 57.1736V63.7631C50.715 66.4883 48.4981 68.7052 45.7728 68.7052H39.1833C38.2728 68.7052 37.5359 69.4421 37.5359 70.3526C37.5359 71.2632 38.2728 72 39.1833 72H45.7728C50.3144 72 54.0097 68.3047 54.0097 63.7631V57.1736C54.0097 56.263 53.2729 55.5262 52.3624 55.5262Z" fill="#007046"/>
</g>
</svg>
